<?xml version="1.0" encoding="UTF-8"?>
<svg version="1.1" xmlns="http://www.w3.org/2000/svg" width="500" height="500">
<path d="M0 0 C1.55545532 0.00081573 1.55545532 0.00081573 3.14233398 0.00164795 C19.46865015 0.04096346 35.19692474 0.79766607 51.1875 4.375 C52.19586914 4.59994141 53.20423828 4.82488281 54.24316406 5.05664062 C72.61611435 9.28982435 90.11381967 15.41431741 107.1875 23.375 C107.83541504 23.67631836 108.48333008 23.97763672 109.15087891 24.28808594 C126.89035519 32.63036267 142.96717434 43.04642311 158.1875 55.375 C158.7954541 55.86581055 159.4034082 56.35662109 160.02978516 56.86230469 C173.70021162 67.99614526 186.42871193 80.39061702 197.1875 94.375 C198.34572266 95.80779297 198.34572266 95.80779297 199.52734375 97.26953125 C226.37280612 130.98539632 243.39043728 171.95128752 250.1875 214.375 C250.38085938 215.56609375 250.57421875 216.7571875 250.7734375 217.984375 C251.22933144 221.71754424 251.39219317 225.36453314 251.4375 229.125 C251.46328125 230.41921875 251.4890625 231.7134375 251.515625 233.046875 C251.15055804 236.74969698 250.73571334 237.00689598 248.1875 239.375 C247.85887704 241.89947461 247.85887704 241.89947461 248.0625 244.8125 C248.21597059 250.96527551 248.02011217 257.04180849 247.6875 263.1875 C247.63964355 264.08976318 247.59178711 264.99202637 247.54248047 265.92163086 C247.42688974 268.07290267 247.30759711 270.22397506 247.1875 272.375 C248.5075 272.705 249.8275 273.035 251.1875 273.375 C251.61325052 280.42584398 250.0641839 287.06134945 248.625 293.9375 C248.3554248 295.2258374 248.08584961 296.5141748 247.80810547 297.84155273 C242.61127592 322.13690026 233.87228816 345.46255943 222.1875 367.375 C221.84638184 368.02388184 221.50526367 368.67276367 221.15380859 369.34130859 C204.60132548 400.64994107 179.73159555 429.40365959 151.1875 450.375 C150.09358945 451.19900566 148.99983869 452.02322349 147.90625 452.84765625 C121.19776316 472.70892242 90.6903478 486.86992609 58.375 494.75 C56.9832959 495.0898291 56.9832959 495.0898291 55.56347656 495.43652344 C52.44797682 496.15069349 49.32781935 496.77867293 46.1875 497.375 C45.50143677 497.50597076 44.81537354 497.63694153 44.10852051 497.7718811 C29.75019717 500.43178913 15.63882895 500.89623487 1.0625 500.8125 C-0.06079712 500.80945862 -1.18409424 500.80641724 -2.34143066 500.80328369 C-18.82499607 500.73726963 -34.70472362 500.17084257 -50.8125 496.375 C-52.25302734 496.05354004 -52.25302734 496.05354004 -53.72265625 495.72558594 C-91.42124071 487.1949774 -125.56592646 470.30028692 -155.8125 446.375 C-156.3497168 445.95492676 -156.88693359 445.53485352 -157.44042969 445.10205078 C-172.7337626 433.04736263 -187.11635916 418.84097129 -198.56933594 403.07568359 C-199.89935255 401.25618326 -201.26326701 399.4656869 -202.6328125 397.67578125 C-208.3025009 390.20446462 -213.32999826 382.58847589 -217.77050781 374.30615234 C-218.89645653 372.21940108 -220.05346054 370.15144585 -221.2109375 368.08203125 C-233.85608721 345.15565462 -242.46138472 320.16564269 -247.25 294.4375 C-247.41411377 293.55634521 -247.57822754 292.67519043 -247.74731445 291.76733398 C-248.69638746 286.23169439 -248.95415559 280.99022768 -248.8125 275.375 C-247.8225 275.045 -246.8325 274.715 -245.8125 274.375 C-245.92078125 273.11623047 -245.92078125 273.11623047 -246.03125 271.83203125 C-246.71667401 262.95007847 -246.8861135 254.16793484 -246.6875 245.2590332 C-246.67589844 244.39366943 -246.66429687 243.52830566 -246.65234375 242.63671875 C-246.63550537 241.86287842 -246.61866699 241.08903809 -246.60131836 240.29174805 C-246.63686773 238.13368871 -246.63686773 238.13368871 -248.8125 236.375 C-253.58231281 195.00314996 -230.86834164 143.11767335 -206.8125 110.375 C-206.38001953 109.77703613 -205.94753906 109.17907227 -205.50195312 108.56298828 C-190.75087667 88.2018488 -174.00855467 68.53642566 -153.8125 53.375 C-153.27657227 52.96266113 -152.74064453 52.55032227 -152.18847656 52.12548828 C-119.03906376 26.63665407 -80.20688322 8.94553702 -38.8125 2.375 C-37.70108643 2.19694824 -36.58967285 2.01889648 -35.44458008 1.83544922 C-23.63902302 0.14494844 -11.9120568 -0.02351626 0 0 Z " fill="#A93030" transform="translate(248.8125,-0.375)"/>
<path d="M0 0 C1.65 0.33 3.3 0.66 5 1 C5.42575052 8.05084398 3.8766839 14.68634945 2.4375 21.5625 C2.1679248 22.8508374 1.89834961 24.1391748 1.62060547 25.46655273 C-3.57622408 49.76190026 -12.31521184 73.08755943 -24 95 C-24.34111816 95.64888184 -24.68223633 96.29776367 -25.03369141 96.96630859 C-41.58617452 128.27494107 -66.45590445 157.02865959 -95 178 C-96.09391055 178.82400566 -97.18766131 179.64822349 -98.28125 180.47265625 C-124.98973684 200.33392242 -155.4971522 214.49492609 -187.8125 222.375 C-188.74030273 222.60155273 -189.66810547 222.82810547 -190.62402344 223.06152344 C-193.73952318 223.77569349 -196.85968065 224.40367293 -200 225 C-200.68606323 225.13097076 -201.37212646 225.26194153 -202.07897949 225.3968811 C-216.43730283 228.05678913 -230.54867105 228.52123487 -245.125 228.4375 C-246.24829712 228.43445862 -247.37159424 228.43141724 -248.52893066 228.42828369 C-265.01249607 228.36226963 -280.89222362 227.79584257 -297 224 C-297.96035156 223.78569336 -298.92070312 223.57138672 -299.91015625 223.35058594 C-337.60874071 214.8199774 -371.75342646 197.92528692 -402 174 C-402.5372168 173.57992676 -403.07443359 173.15985352 -403.62792969 172.72705078 C-418.9212626 160.67236263 -433.30385916 146.46597129 -444.75683594 130.70068359 C-446.08685255 128.88118326 -447.45076701 127.0906869 -448.8203125 125.30078125 C-454.4900009 117.82946462 -459.51749826 110.21347589 -463.95800781 101.93115234 C-465.08395653 99.84440108 -466.24096054 97.77644585 -467.3984375 95.70703125 C-480.04358721 72.78065462 -488.64888472 47.79064269 -493.4375 22.0625 C-493.68367065 20.74076782 -493.68367065 20.74076782 -493.93481445 19.39233398 C-494.88388746 13.85669439 -495.14165559 8.61522768 -495 3 C-493.68 2.34 -492.36 1.68 -491 1 C-490.67 3.64 -490.34 6.28 -490 9 C-489.42241943 9.1124707 -488.84483887 9.22494141 -488.24975586 9.34082031 C-483.54910252 10.26730437 -478.86551396 11.24429403 -474.19140625 12.296875 C-459.16338469 15.62419692 -444.12028595 18.14446127 -428.875 20.25 C-427.97814484 20.37451538 -427.08128967 20.49903076 -426.15725708 20.62731934 C-410.41194081 22.79888827 -394.58506799 24.97897244 -378.6875 25.5625 C-377.14960559 25.62298622 -375.61183457 25.68670967 -374.07421875 25.75390625 C-373.10875122 25.78979858 -373.10875122 25.78979858 -372.1237793 25.82641602 C-370 26 -370 26 -367.15112305 26.49560547 C-363.90940387 27.01450156 -360.78790308 27.2070699 -357.5078125 27.31640625 C-356.30898438 27.35830078 -355.11015625 27.40019531 -353.875 27.44335938 C-352.6375 27.48267578 -351.4 27.52199219 -350.125 27.5625 C-348.86429688 27.60568359 -347.60359375 27.64886719 -346.3046875 27.69335938 C-343.20322577 27.79909102 -340.10168855 27.90118571 -337 28 C-336.38125 29.81371094 -336.38125 29.81371094 -335.75 31.6640625 C-326.57332191 57.95364073 -311.62026151 78.93131088 -286.12451172 91.34936523 C-264.22599333 101.4337205 -239.06039615 103.6674803 -216 96 C-211.48372542 94.28727073 -207.25300896 92.28371687 -203 90 C-201.99582031 89.48695313 -200.99164063 88.97390625 -199.95703125 88.4453125 C-191.82321691 84.04694976 -185.49203759 78.48303338 -179 72 C-178.18402344 71.195625 -177.36804688 70.39125 -176.52734375 69.5625 C-167.14657584 59.77946931 -159.16955204 46.04975241 -155.93701172 32.83154297 C-155.47319092 30.9349292 -155.47319092 30.9349292 -155 29 C-153.99364502 28.93006836 -152.98729004 28.86013672 -151.95043945 28.78808594 C-74.98396462 26.99164305 -74.98396462 26.99164305 -2 7 C-1.26924352 4.6859378 -0.59861742 2.35171131 0 0 Z " fill="#898C98" transform="translate(495,272)"/>
<path d="M0 0 C17.02639045 12.63432323 30.89311714 29.8395389 36.625 50.5625 C36.65689778 52.56224562 36.66105517 54.56282502 36.625 56.5625 C112.61440258 55.01650148 112.61440258 55.01650148 185.98046875 37.578125 C188.1954056 36.72748455 190.31225354 36.07031068 192.625 35.5625 C193.51557118 43.19400993 193.71237523 50.6464592 193.375 58.3125 C193.34865479 59.09149658 193.32230957 59.87049316 193.29516602 60.6730957 C192.998242 66.23939209 192.15564796 71.53828318 189.625 76.5625 C170.17881366 92.85620805 124.84824719 91.36358711 100.84448242 93.37567139 C98.53868359 93.56976583 96.23318374 93.7671316 93.92773438 93.96533203 C49.30490759 97.79975399 49.30490759 97.79975399 36.625 97.5625 C36.52445312 98.73167969 36.42390625 99.90085937 36.3203125 101.10546875 C35.78043343 105.38217628 34.39886716 109.0244909 32.5 112.875 C32.03086182 113.84602661 32.03086182 113.84602661 31.55224609 114.83666992 C26.54976016 124.98331621 20.44111228 133.39110989 12.625 141.5625 C11.70460938 142.59503906 11.70460938 142.59503906 10.765625 143.6484375 C-3.21500782 158.7642499 -24.90796451 168.19288672 -45.23950195 169.78710938 C-73.66201011 170.89268506 -96.41673507 163.51759378 -118.0625 144.8125 C-131.40919899 132.20297334 -140.69709422 116.35085226 -145.375 98.5625 C-145.375 97.9025 -145.375 97.2425 -145.375 96.5625 C-146.16148926 96.56773682 -146.94797852 96.57297363 -147.75830078 96.57836914 C-151.33885899 96.5992201 -154.91940438 96.61218601 -158.5 96.625 C-159.7375 96.63337891 -160.975 96.64175781 -162.25 96.65039062 C-163.44882813 96.65361328 -164.64765625 96.65683594 -165.8828125 96.66015625 C-167.53240967 96.66801147 -167.53240967 96.66801147 -169.21533203 96.67602539 C-172.375 96.5625 -172.375 96.5625 -175.24291992 96.08276367 C-179.15919516 95.43223888 -183.0186188 95.29732674 -186.98046875 95.140625 C-197.27802536 94.66034474 -207.4589619 93.56620804 -217.6875 92.3125 C-218.59342896 92.20301025 -219.49935791 92.09352051 -220.43273926 91.98071289 C-246.65645676 88.79908714 -272.98234575 85.04701047 -298.375 77.5625 C-302.4287636 64.04995468 -301.50141959 49.5248417 -301.375 35.5625 C-299.89 35.0675 -299.89 35.0675 -298.375 34.5625 C-297.715 34.8925 -297.055 35.2225 -296.375 35.5625 C-296.375 36.2225 -296.375 36.8825 -296.375 37.5625 C-295.67117188 37.68882812 -294.96734375 37.81515625 -294.2421875 37.9453125 C-291.24204434 38.59111988 -288.41533469 39.48055808 -285.5 40.4375 C-274.48002728 43.85492974 -263.36570445 45.72740022 -251.92089844 46.91650391 C-248.91126905 47.23229401 -246.25774649 47.6015845 -243.375 48.5625 C-240.79104611 48.91351657 -238.21712986 49.22429521 -235.625 49.5 C-234.83786621 49.58499756 -234.05073242 49.66999512 -233.23974609 49.75756836 C-218.55702924 51.31084975 -203.86333291 52.62910392 -189.10791016 53.22094727 C-185.45102922 53.37354497 -181.8475025 53.60171126 -178.21484375 54.0546875 C-171.77157571 54.81589676 -165.29258406 54.92280812 -158.8125 55.125 C-156.87020508 55.18977539 -156.87020508 55.18977539 -154.88867188 55.25585938 C-151.71753616 55.36117385 -148.54633207 55.46330617 -145.375 55.5625 C-145.3287146 54.72392456 -145.3287146 54.72392456 -145.28149414 53.8684082 C-144.82619024 48.12843491 -143.51436419 43.80669995 -140.8125 38.75 C-140.45389893 38.06131836 -140.09529785 37.37263672 -139.72583008 36.66308594 C-127.78889892 14.16224479 -109.96970771 -4.05885603 -85.35498047 -12.09716797 C-55.33015925 -21.15977805 -25.96866862 -17.43379466 0 0 Z " fill="#010000" transform="translate(303.375,203.4375)"/>
<path d="M0 0 C0.81146484 0.00064453 1.62292969 0.00128906 2.45898438 0.00195312 C17.26157245 0.10947798 30.73840039 5.72615816 41.4375 16.1875 C50.69873471 27.60830514 56.88493084 41.25368969 55.4375 56.1875 C54.11054089 65.57657206 51.49668515 73.16484393 46.4375 81.1875 C45.71175781 81.11144531 44.98601562 81.03539062 44.23828125 80.95703125 C40.61446539 81.2552253 39.34037076 82.50179227 36.625 84.875 C24.31852294 95.1515427 11.68883475 99.84401984 -4.55859375 99.0390625 C-18.53609677 97.36844461 -30.44410245 89.67719058 -39.3671875 79.03515625 C-47.55423289 67.77287739 -49.06444107 54.74331705 -47.5625 41.1875 C-46.95201617 39.16964125 -46.29950153 37.16266409 -45.5625 35.1875 C-45.5625 34.1975 -45.5625 33.2075 -45.5625 32.1875 C-46.2225 31.8575 -46.8825 31.5275 -47.5625 31.1875 C-46.18527136 21.46188542 -37.03956675 13.84582078 -29.5625 8.1875 C-19.94332051 2.37875677 -11.13625212 -0.16886575 0 0 Z " fill="#969BAB" transform="translate(250.5625,227.8125)"/>
<path d="M0 0 C0.69351563 0.29648438 1.38703125 0.59296875 2.1015625 0.8984375 C4.38352249 2.22253774 5.74386165 3.73171503 7.4375 5.75 C8.03820312 6.46414063 8.63890625 7.17828125 9.2578125 7.9140625 C9.83273437 8.60242188 10.40765625 9.29078125 11 10 C11.49242187 10.54398437 11.98484375 11.08796875 12.4921875 11.6484375 C17.30367599 17.02933291 18.1814352 21.65024024 18.00390625 28.609375 C17.99762779 32.45179163 18.51633854 36.19116602 19 40 C18.34 39.34 17.68 38.68 17 38 C16.38125 38.66 15.7625 39.32 15.125 40 C13 42 13 42 11 42 C10.67 42.99 10.34 43.98 10 45 C5.54285714 49 5.54285714 49 3 49 C2.67 49.99 2.34 50.98 2 52 C-0.36328125 53.5703125 -0.36328125 53.5703125 -3.3125 55.125 C-4.76076172 55.90230469 -4.76076172 55.90230469 -6.23828125 56.6953125 C-13.87127034 60.30127906 -21.69006916 59.65190647 -29.578125 57.04296875 C-36.85442802 53.90946406 -43.05166029 48.46753055 -46.2265625 41.1875 C-49.81985926 31.01871462 -49.81613158 21.04904273 -45.9296875 10.92578125 C-42.71120434 4.25892327 -37.57928776 0.85821517 -31 -2 C-20.23080593 -5.69831754 -10.26740422 -4.5595928 0 0 Z " fill="#979CAE" transform="translate(269,251)"/>
<path d="M0 0 C1.32 0.66 2.64 1.32 4 2 C3.10543131 8.64536741 3.10543131 8.64536741 2.484375 10.734375 C-0.16453371 23.12443188 2.11109972 35.93586345 8.625 46.6875 C16.66319002 57.75253963 27.57929589 64.74627701 41 67.4375 C55.11303442 69.21552008 68.44803662 66.29367768 80.0625 57.9375 C82.64863281 55.92517786 85.16599546 53.85907423 87.6640625 51.73828125 C90 50 90 50 92.3125 50.25 C93.1478125 50.62125 93.1478125 50.62125 94 51 C87.33024416 62.82365807 76.11617448 68.95079681 63.6015625 73.13671875 C50.03376629 76.38886947 33.7889117 74.12504961 21.625 67.3125 C9.409261 59.10023849 0.62959452 49.02927718 -3.34375 34.66015625 C-5.38472915 23.27683804 -5.26102632 10.52205263 0 0 Z " fill="#212229" transform="translate(202,258)"/>
<path d="M0 0 C21.54102267 6.20673535 41.31719101 22.40943461 52.390625 41.90625 C56.470696 49.74949328 59.71803369 57.44726448 62 66 C104.03356506 66.5637885 147.45355748 62.91342323 188.5625 54.0625 C189.63878662 53.83385254 190.71507324 53.60520508 191.82397461 53.36962891 C198.27296344 51.90195238 204.17950152 49.86265555 210.22631836 47.18139648 C213.10877799 45.9536681 216.01711103 44.95435959 219 44 C217.96852009 46.90064654 217.1418091 47.91178283 214.48828125 49.5625 C206.15846442 53.33294599 197.92777235 56.05813061 189 58 C188.14390137 58.18916992 187.28780273 58.37833984 186.40576172 58.57324219 C144.94178939 67.50305901 101.35805015 70.76586182 59 70 C58.74041504 68.84201904 58.74041504 68.84201904 58.47558594 67.66064453 C56.98806516 61.33329166 55.28660819 55.62145982 52.25 49.875 C51.72394165 48.85672119 51.72394165 48.85672119 51.18725586 47.81787109 C39.6639304 25.95710065 21.29447548 10.15843381 -2 2 C-1.34 1.34 -0.68 0.68 0 0 Z " fill="#632020" transform="translate(281,190)"/>
<path d="M0 0 C1 2 1 2 0.4765625 3.92578125 C0.19554687 4.71339844 -0.08546875 5.50101562 -0.375 6.3125 C-3.79778629 17.3927756 -3.88643462 27.33740422 1 38 C5.4286295 45.2521737 12.31703007 49.62522915 20.53515625 51.61328125 C27.76897327 52.74822243 33.3546072 51.97193191 40 49 C40.74378906 48.70996094 41.48757813 48.41992188 42.25390625 48.12109375 C47.14290663 46.14398531 50.77230403 43.81794131 54.58984375 40.171875 C56 39 56 39 58 39 C56.82618717 45.70750188 52.18310902 49.10642853 47 53 C38.38709161 58.47362403 28.89068974 60.36774997 18.890625 58.3828125 C8.63266972 55.66180558 1.13581933 50.92487294 -4.5 41.8125 C-5.37811558 40.23240248 -6.21395368 38.62785943 -7 37 C-7.37769531 36.24332031 -7.75539062 35.48664063 -8.14453125 34.70703125 C-9.28811248 31.08830159 -9.25242921 27.6272249 -9.1875 23.875 C-9.18685547 23.15957031 -9.18621094 22.44414062 -9.18554688 21.70703125 C-9.15897902 18.54840896 -9.00523113 16.01569338 -8 13 C-7.01 13 -6.02 13 -5 13 C-4.731875 11.783125 -4.46375 10.56625 -4.1875 9.3125 C-3.31505639 5.77878956 -2.07843061 3.0231718 0 0 Z " fill="#585D6D" transform="translate(224,257)"/>
<path d="M0 0 C0.66 0 1.32 0 2 0 C2.43828125 0.84820312 2.8765625 1.69640625 3.328125 2.5703125 C16.32383314 26.9311286 36.34353391 42.48893934 62.59716797 50.54248047 C84.47282607 56.91364512 109.09012301 53.69090671 129 43 C130.00417969 42.48695313 131.00835937 41.97390625 132.04296875 41.4453125 C139.03869217 37.6623728 144.59097427 33.06432012 150.28515625 27.6015625 C153.42073198 24.59682374 156.6774324 21.7939773 160 19 C158.40170377 23.06313862 155.47546962 25.68191462 152.375 28.625 C150.52792799 30.37971841 148.75602961 32.15000225 147 34 C147 34.66 147 35.32 147 36 C126.54592223 53.80707947 100.27790231 58.60465726 74 57 C68.45167355 56.31563964 63.28757073 54.81689931 58 53 C57.35740234 52.78037598 56.71480469 52.56075195 56.05273438 52.33447266 C32.75026074 44.19243624 13.14809897 27.3505929 1.20703125 5.7578125 C0 3 0 3 0 0 Z " fill="#C9CAD2" transform="translate(163,319)"/>
<path d="M0 0 C1.80151367 0.15649414 1.80151367 0.15649414 3.98046875 0.72265625 C4.78790527 0.92391113 5.5953418 1.12516602 6.42724609 1.33251953 C7.27625488 1.55278809 8.12526367 1.77305664 9 2 C10.66185366 2.39833344 12.32463537 2.79281313 13.98828125 3.18359375 C19.25166694 4.42272293 19.25166694 4.42272293 21.86132812 5.05664062 C37.49445242 8.70096372 53.54298843 10.45825685 69.5 12 C70.33865601 12.08271149 71.17731201 12.16542297 72.04138184 12.25064087 C90.37789378 14.04153898 108.75402432 15.09154817 127.15039062 16.04882812 C128.77741913 16.13472954 128.77741913 16.13472954 130.43731689 16.22236633 C132.4755006 16.32902055 134.5138679 16.43224239 136.5524292 16.53141785 C137.46228577 16.57865494 138.37214233 16.62589203 139.30957031 16.67456055 C140.09857727 16.71356979 140.88758423 16.75257904 141.70050049 16.79277039 C144.18558593 17.0167249 146.5632979 17.47038104 149 18 C149 18.66 149 19.32 149 20 C144.52084729 20.0292814 140.04171958 20.04689296 135.5625 20.0625 C134.30244141 20.07087891 133.04238281 20.07925781 131.74414062 20.08789062 C125.93194462 20.10306607 120.25974064 20.03601434 114.49682617 19.27856445 C111.14805668 18.90495088 107.79293098 18.72068615 104.4296875 18.53515625 C103.39493538 18.4769445 103.39493538 18.4769445 102.33927917 18.41755676 C99.47184657 18.25759825 96.60428553 18.10071256 93.73632812 17.95043945 C84.86975292 17.48126003 76.14083338 16.73762186 67.35327148 15.44897461 C63.96467728 14.99527059 60.59865664 14.71856981 57.1875 14.5 C52.56790674 14.18005247 48.21511545 13.52360437 43.69921875 12.52734375 C40.45808115 11.89412584 37.21665385 11.51545773 33.9375 11.125 C21.58215595 9.52592615 9.5631935 6.695206 -2 2 C-1.34 1.34 -0.68 0.68 0 0 Z " fill="#452020" transform="translate(9,239)"/>
<path d="M0 0 C0.80179687 0.17917969 1.60359375 0.35835937 2.4296875 0.54296875 C5.07610874 1.16925705 7.55969435 1.77984718 10 3 C10 3.66 10 4.32 10 5 C2.66047052 4.22741795 2.66047052 4.22741795 -0.9609375 2.98046875 C-6.52284338 1.34816219 -12.31668259 1.66068172 -18.0625 1.6875 C-19.87633179 1.69378418 -19.87633179 1.69378418 -21.72680664 1.70019531 C-30.22946838 1.80786019 -37.84578376 2.46410433 -46 5 C-47.00289062 5.2784375 -48.00578125 5.556875 -49.0390625 5.84375 C-70.53306681 12.28639729 -88.32418844 27.04397653 -100 46 C-100.76953125 44.3828125 -100.76953125 44.3828125 -101 42 C-99.64771911 39.7573409 -98.3290899 37.8870516 -96.6875 35.875 C-96.23544189 35.30676514 -95.78338379 34.73853027 -95.31762695 34.15307617 C-83.41470654 19.45407101 -83.41470654 19.45407101 -76 17 C-76 16.34 -76 15.68 -76 15 C-52.38160625 0.69545466 -27.58265095 -6.3552503 0 0 Z " fill="#6F1D1D" transform="translate(269,186)"/>
<path d="M0 0 C0 0.66 0 1.32 0 2 C-26.37484447 6.2307771 -53.02948865 7.98232949 -79.64654541 9.96707153 C-82.17331629 10.15565079 -84.69996936 10.3458154 -87.22650146 10.53756714 C-90.79511844 10.80710307 -94.36422144 11.06880775 -97.93359375 11.328125 C-99.0216481 11.41125443 -100.10970245 11.49438385 -101.23072815 11.58003235 C-102.22636276 11.65062363 -103.22199738 11.7212149 -104.24780273 11.79394531 C-105.5574424 11.89029266 -105.5574424 11.89029266 -106.89353943 11.98858643 C-109 12 -109 12 -111 11 C-111.33 12.98 -111.66 14.96 -112 17 C-112.99435406 13.90645403 -112.87840996 12.09720845 -112 9 C-110.99364502 8.93006836 -109.98729004 8.86013672 -108.95043945 8.78808594 C-88.26423186 7.34319188 -67.59366886 5.76489239 -46.9375 3.9375 C-45.53451157 3.81477722 -45.53451157 3.81477722 -44.10317993 3.6895752 C-33.82049691 2.78707105 -23.57898332 1.7718611 -13.34985352 0.3815918 C-8.88459412 -0.12705921 -4.48593925 -0.19410314 0 0 Z " fill="#EFF0F6" transform="translate(452,292)"/>
<path d="M0 0 C21.52771632 6.20290131 41.33486897 22.40576987 52.38671875 41.90625 C52.91910156 42.9271875 53.45148438 43.948125 54 45 C54.50144531 45.9590625 55.00289063 46.918125 55.51953125 47.90625 C58.39487823 53.8060974 60.05689612 59.51088226 61 66 C60.34 66 59.68 66 59 66 C58.52691406 64.79085937 58.05382812 63.58171875 57.56640625 62.3359375 C46.532731 34.75599201 30.37332737 16.50238501 3 4 C1.33988107 3.31719156 -0.3239284 2.64265559 -2 2 C-1.34 1.34 -0.68 0.68 0 0 Z " fill="#832222" transform="translate(281,190)"/>
<path d="M0 0 C0.33 0 0.66 0 1 0 C1.18175781 0.80824219 1.36351562 1.61648438 1.55078125 2.44921875 C1.80214844 3.51785156 2.05351562 4.58648437 2.3125 5.6875 C2.55613281 6.74324219 2.79976562 7.79898437 3.05078125 8.88671875 C4.63323815 14.07691691 6.95981768 17.26774699 11.125 20.6875 C14.90483619 23.80967239 14.90483619 23.80967239 16 26 C18.32783865 27.07438707 20.6195481 28.06281421 23 29 C23.71027344 29.35835938 24.42054688 29.71671875 25.15234375 30.0859375 C29.22313134 31.39261006 33.06801389 31.21210074 37.3125 31.125 C38.56643555 31.11146484 38.56643555 31.11146484 39.84570312 31.09765625 C41.89725969 31.07420989 43.94866777 31.03834266 46 31 C46 31.99 46 32.98 46 34 C35.76756278 37.48338288 26.94142119 36.27095036 17 32 C8.66665897 27.03204669 4.25482305 20.50964609 0 12 C-0.07065617 9.95944995 -0.08421976 7.91665743 -0.0625 5.875 C-0.05347656 4.77929688 -0.04445312 3.68359375 -0.03515625 2.5546875 C-0.02355469 1.71164062 -0.01195312 0.86859375 0 0 Z " fill="#24262D" transform="translate(216,280)"/>
<path d="M0 0 C1.32 0.66 2.64 1.32 4 2 C3.10543131 8.64536741 3.10543131 8.64536741 2.484375 10.734375 C0.42399568 20.37163313 1.49343425 30.62599234 5.125 39.6796875 C6 42 6 42 6 45 C2 45 2 45 0 44 C-5.72729384 31.64660344 -5.85919245 16.8200807 -1.75390625 3.96875 C-1 2 -1 2 0 0 Z " fill="#282B34" transform="translate(202,258)"/>
<path d="M0 0 C2.475 0.495 2.475 0.495 5 1 C5.25 7.625 5.25 7.625 3 11 C2.505 10.01 2.505 10.01 2 9 C1.47535156 9.30292969 0.95070313 9.60585938 0.41015625 9.91796875 C-11.76849365 16.50376113 -28.04532518 21.75430675 -42 21 C-41 19 -41 19 -39.41796875 18.32421875 C-38.31388672 18.00904297 -38.31388672 18.00904297 -37.1875 17.6875 C-36.29546875 17.43226563 -35.4034375 17.17703125 -34.484375 16.9140625 C-31.72896056 16.19122956 -28.97222692 15.5028924 -26.203125 14.8359375 C-25.33921143 14.62622314 -24.47529785 14.41650879 -23.58520508 14.20043945 C-21.8578932 13.78426002 -20.12860975 13.37615594 -18.3972168 12.97729492 C-12.78854805 11.63207062 -6.88289008 10.1720621 -2 7 C-0.64450013 4.56399574 -0.37901261 2.81552225 0 0 Z " fill="#D3D5DB" transform="translate(495,272)"/>
<path d="M0 0 C-1.17072569 6.68986107 -5.80944422 10.1338174 -11 14 C-13.62807793 15.55000313 -16.19613134 16.77649368 -19 18 C-19.33 17.01 -19.66 16.02 -20 15 C-20.51691406 15.16113281 -21.03382813 15.32226562 -21.56640625 15.48828125 C-24.72163945 16.1517412 -27.71426337 16.17030023 -30.9375 16.1875 C-32.74541016 16.20876953 -32.74541016 16.20876953 -34.58984375 16.23046875 C-37.86019062 16.00944874 -40.06816515 15.40750326 -43 14 C-43 13.67 -43 13.34 -43 13 C-41.865625 13.03480469 -40.73125 13.06960938 -39.5625 13.10546875 C-28.43691969 13.42246706 -28.43691969 13.42246706 -18 10 C-17.26652344 9.70996094 -16.53304688 9.41992188 -15.77734375 9.12109375 C-10.86725331 7.16197586 -7.23540287 4.82530203 -3.41015625 1.171875 C-2 0 -2 0 0 0 Z " fill="#3B3E48" transform="translate(282,296)"/>
<path d="M0 0 C0 0.66 0 1.32 0 2 C-1.63195312 2.70962891 -1.63195312 2.70962891 -3.296875 3.43359375 C-12.8509451 7.69087604 -20.95031283 12.24338848 -29 19 C-29.85980469 19.68578125 -30.71960938 20.3715625 -31.60546875 21.078125 C-38.79250738 27.0951806 -43.83161977 34.26942277 -49 42 C-49.76953125 40.3828125 -49.76953125 40.3828125 -50 38 C-48.64771911 35.7573409 -47.3290899 33.8870516 -45.6875 31.875 C-45.23544189 31.30676514 -44.78338379 30.73853027 -44.31762695 30.15307617 C-32.41470654 15.45407101 -32.41470654 15.45407101 -25 13 C-25 12.34 -25 11.68 -25 11 C-22.43964079 9.53779721 -19.8768644 8.08014847 -17.3125 6.625 C-16.59126953 6.2125 -15.87003906 5.8 -15.12695312 5.375 C-5.63400958 0 -5.63400958 0 0 0 Z " fill="#712323" transform="translate(218,190)"/>
<path d="M0 0 C0.66 0 1.32 0 2 0 C2.43828125 0.84820312 2.8765625 1.69640625 3.328125 2.5703125 C11.94597433 18.72471057 23.4544917 30.26294958 38.40625 40.67578125 C38.9321875 41.11277344 39.458125 41.54976563 40 42 C40 42.66 40 43.32 40 44 C35.67253794 42.53347119 32.31139036 40.22913131 28.75 37.4375 C28.17789795 36.98987305 27.6057959 36.54224609 27.01635742 36.08105469 C15.89390702 27.24305535 5.77055259 16.16058283 0 3 C0 2.01 0 1.02 0 0 Z " fill="#C0C1C8" transform="translate(163,319)"/>
<path d="M0 0 C8.33377927 0.32256445 16.66704524 0.65680149 25 1 C26.04430176 1.0427002 27.08860352 1.08540039 28.16455078 1.12939453 C31.02658738 1.24835449 33.88830557 1.37310412 36.75 1.5 C37.61133545 1.53536865 38.4726709 1.5707373 39.36010742 1.60717773 C43.33610291 1.78922662 47.11550223 2.05256152 51 3 C51 3.66 51 4.32 51 5 C35.52971771 5.21491095 20.32846772 5.27088411 5 3 C5 2.34 5 1.68 5 1 C3.35 1 1.7 1 0 1 C0 0.67 0 0.34 0 0 Z " fill="#542222" transform="translate(107,254)"/>
<path d="M0 0 C-0.33 0.66 -0.66 1.32 -1 2 C-3.19480896 2.39909363 -3.19480896 2.39909363 -6.13061523 2.61010742 C-7.22522568 2.69326706 -8.31983612 2.7764267 -9.44761658 2.86210632 C-10.63923904 2.94241592 -11.83086151 3.02272552 -13.05859375 3.10546875 C-14.27321793 3.19379471 -15.4878421 3.28212067 -16.73927307 3.37312317 C-19.31389471 3.55824924 -21.8888585 3.7386668 -24.46411133 3.91479492 C-28.4177479 4.18614436 -32.36995522 4.47370932 -36.32226562 4.76367188 C-38.81763988 4.94106967 -41.31308076 5.11753328 -43.80859375 5.29296875 C-44.99819199 5.37935104 -46.18779022 5.46573334 -47.41343689 5.55473328 C-49.0600808 5.66528801 -49.0600808 5.66528801 -50.73999023 5.77807617 C-52.19440773 5.87894783 -52.19440773 5.87894783 -53.6782074 5.9818573 C-56 6 -56 6 -58 5 C-58.33 6.98 -58.66 8.96 -59 11 C-59.99435406 7.90645403 -59.87840996 6.09720845 -59 3 C-53.49121955 2.5638141 -47.98180804 2.13707706 -42.47167969 1.71826172 C-40.60592983 1.57521023 -38.74035989 1.42978797 -36.875 1.28173828 C-24.55473069 0.30594109 -12.35912873 -0.20513077 0 0 Z " fill="#F0F1F6" transform="translate(399,298)"/>
<path d="M0 0 C0 1.32 0 2.64 0 4 C2.42672567 5.78969026 2.42672567 5.78969026 5 7 C4.67 7.66 4.34 8.32 4 9 C3.05125 8.38125 2.1025 7.7625 1.125 7.125 C-3.33126858 4.54457343 -7.95991248 3.77071761 -13 3 C-13 2.34 -13 1.68 -13 1 C-19.93 0.505 -19.93 0.505 -27 0 C-20.56852306 -6.43147694 -7.42410395 -3.0796283 0 0 Z " fill="#E2E4EE" transform="translate(267,250)"/>
<path d="M0 0 C5.15964963 0.11866965 10.31912316 0.2429449 15.47851562 0.37231445 C17.23205946 0.41550598 18.98564108 0.45719155 20.73925781 0.49731445 C23.26639165 0.55540124 25.79333804 0.61898299 28.3203125 0.68359375 C29.09867462 0.70030624 29.87703674 0.71701874 30.6789856 0.73423767 C34.87551289 0.8472986 38.86538737 1.19205414 43 2 C43 2.33 43 2.66 43 3 C28.65916354 4.02565369 14.37342318 4.11352035 0 4 C0 2.68 0 1.36 0 0 Z " fill="#611D1D" transform="translate(340,256)"/>
<path d="M0 0 C0.5775 0.226875 1.155 0.45375 1.75 0.6875 C-1.54241827 6.41344481 -5.99901155 10.69350493 -11.25 14.6875 C-11.91 14.6875 -12.57 14.6875 -13.25 14.6875 C-13.58 14.0275 -13.91 13.3675 -14.25 12.6875 C-16.23 13.0175 -18.21 13.3475 -20.25 13.6875 C-15.62973392 9.96147897 -10.95044144 6.31163284 -6.25 2.6875 C-5.54488281 2.11515625 -4.83976562 1.5428125 -4.11328125 0.953125 C-2.25 -0.3125 -2.25 -0.3125 0 0 Z " fill="#4D505C" transform="translate(294.25,308.3125)"/>
<path d="M0 0 C14.35003796 -0.19778 28.6643977 0.40845188 43 1 C43 1.99 43 2.98 43 4 C17.02673691 3.12598087 17.02673691 3.12598087 7.4375 2.5625 C5.88869141 2.47162109 5.88869141 2.47162109 4.30859375 2.37890625 C2 2 2 2 0 0 Z " fill="#B3B4BB" transform="translate(115,299)"/>
<path d="M0 0 C1.32 0.66 2.64 1.32 4 2 C3.10909091 8.61818182 3.10909091 8.61818182 2.5 10.75 C1.76636641 14.05135117 1.63162356 17.38307 1.4375 20.75 C1.39431641 21.44738281 1.35113281 22.14476562 1.30664062 22.86328125 C1.20110404 24.57531922 1.1001009 26.28763561 1 28 C0.67 28 0.34 28 0 28 C0 24.04 0 20.08 0 16 C-1.32 16 -2.64 16 -4 16 C-3.71653722 14.08210287 -3.4228972 12.16570817 -3.125 10.25 C-2.88136719 8.64898437 -2.88136719 8.64898437 -2.6328125 7.015625 C-2.06776118 4.32291129 -1.36577086 2.36427561 0 0 Z " fill="#4E5262" transform="translate(202,258)"/>
<path d="M0 0 C21.64854476 -0.38505317 21.64854476 -0.38505317 32 2 C32.80179687 2.17917969 33.60359375 2.35835937 34.4296875 2.54296875 C37.07610874 3.16925705 39.55969435 3.77984718 42 5 C42 5.66 42 6.32 42 7 C37.29169598 6.53840157 32.89470775 5.74385044 28.3125 4.5625 C19.02369384 2.32264603 9.50442617 1.75081058 0 1 C0 0.67 0 0.34 0 0 Z " fill="#902424" transform="translate(237,184)"/>
<path d="M0 0 C0.66 0.66 1.32 1.32 2 2 C0.72624115 6.97923913 -1.0011789 9.74514561 -5 13 C-7.8125 13.8125 -7.8125 13.8125 -10 14 C-10 14.99 -10 15.98 -10 17 C-10.99 17 -11.98 17 -13 17 C-11.59284249 12.7402895 -9.54513289 10.08008578 -6.5 6.8125 C-5.7059375 5.95269531 -4.911875 5.09289062 -4.09375 4.20703125 C-2.7470681 2.78748783 -1.38359237 1.38359237 0 0 Z " fill="#757A89" transform="translate(217,239)"/>
<path d="M0 0 C-0.66 1.98 -1.32 3.96 -2 6 C-2.495 5.01 -2.495 5.01 -3 4 C-3.47308594 4.38671875 -3.94617188 4.7734375 -4.43359375 5.171875 C-12.70586646 11.68649132 -20.58360394 15.12163729 -31.1875 15.1875 C-32.23292969 15.20167969 -33.27835938 15.21585937 -34.35546875 15.23046875 C-37 15 -37 15 -39 13 C-38.154375 13.03480469 -37.30875 13.06960938 -36.4375 13.10546875 C-29.50896127 13.27080888 -24.23708095 12.99637085 -18 10 C-17.26136719 9.70996094 -16.52273438 9.41992188 -15.76171875 9.12109375 C-10.86214651 7.15303028 -7.23153647 4.8216093 -3.41015625 1.171875 C-2 0 -2 0 0 0 Z " fill="#646776" transform="translate(282,296)"/>
<path d="M0 0 C0.66 0 1.32 0 2 0 C2.49628906 0.9178125 2.99257812 1.835625 3.50390625 2.78125 C7.39104397 9.84544929 11.26862082 16.2327997 17 22 C16.34 22.99 15.68 23.98 15 25 C0.36993337 7.21370072 0.36993337 7.21370072 0 0 Z " fill="#B1B2BA" transform="translate(163,319)"/>
<path d="M0 0 C1.32 0.33 2.64 0.66 4 1 C2.78651845 5.0138236 1.62773046 8.69100609 -1 12 C-3.5625 12.25 -3.5625 12.25 -6 12 C-6.99 12.495 -6.99 12.495 -8 13 C-6.40956621 7.91061189 -3.2553049 4.12543357 0 0 Z " fill="#777B8A" transform="translate(298,297)"/>
<path d="M0 0 C0.74507812 0.10441406 1.49015625 0.20882812 2.2578125 0.31640625 C4.09014511 0.57481213 5.92032234 0.84842082 7.75 1.125 C7.75 1.455 7.75 1.785 7.75 2.125 C4.8759578 2.63112064 2.00097127 3.13006541 -0.875 3.625 C-1.68324219 3.76808594 -2.49148437 3.91117188 -3.32421875 4.05859375 C-7.68877864 4.80376251 -11.80238129 5.29772306 -16.25 5.125 C-10.89336311 -0.61425381 -7.70606681 -1.18450144 0 0 Z " fill="#C0C3CF" transform="translate(246.25,249.875)"/>
<path d="M0 0 C0 3 0 3 -2.625 5.84765625 C-3.74275677 6.9268238 -4.86810952 7.99816605 -6 9.0625 C-8.05106836 11.00500956 -10.03464991 12.96738346 -12 15 C-12 15.66 -12 16.32 -12 17 C-13.8984375 18.5078125 -13.8984375 18.5078125 -16.375 20.125 C-17.18710937 20.66382813 -17.99921875 21.20265625 -18.8359375 21.7578125 C-21 23 -21 23 -23 23 C-23 22.01 -23 21.02 -23 20 C-21.015625 18.37890625 -21.015625 18.37890625 -18.25 16.5625 C-11.38242032 11.78466499 -5.76215617 6.03367139 0 0 Z " fill="#BBBDC5" transform="translate(322,338)"/>
<path d="M0 0 C2 3 2 3 3 6 C3.97330982 7.0259961 4.97696508 8.02357819 6 9 C6.48597656 9.61617188 6.97195312 10.23234375 7.47265625 10.8671875 C11.88531688 16.43993335 16.47898797 19.2708843 23 22 C23 22.33 23 22.66 23 23 C18.49469742 23.3975267 15.80953401 22.41011335 12 20 C10.36063734 18.2792794 8.86817272 16.49147483 7.3828125 14.63671875 C5.98317165 12.8562025 5.98317165 12.8562025 3.75 11.3125 C1.59353853 9.6951539 0.87363375 8.54809843 0 6 C-0.125 2.75 -0.125 2.75 0 0 Z " fill="#4C505E" transform="translate(219,286)"/>
<path d="M0 0 C-3.62262966 2.11473305 -7.28295669 2.81639264 -11.375 3.625 C-13.30472656 4.01558594 -13.30472656 4.01558594 -15.2734375 4.4140625 C-18.60063459 4.9372067 -21.64202482 5.11435829 -25 5 C-24 3 -24 3 -22.20703125 2.1484375 C-14.76119838 -0.25657866 -7.7759295 -0.30252175 0 0 Z " fill="#D8D9E0" transform="translate(478,288)"/>
<path d="M0 0 C1.46726798 3.81489674 0.43336419 6.29011622 -1 10 C-1.66 9.67 -2.32 9.34 -3 9 C-2.67 7.68 -2.34 6.36 -2 5 C-5.74281699 7.38179263 -8.97727468 9.74475735 -12 13 C-12.99 12.67 -13.98 12.34 -15 12 C-14.31292969 11.45730469 -13.62585938 10.91460937 -12.91796875 10.35546875 C-12.01691406 9.64003906 -11.11585938 8.92460937 -10.1875 8.1875 C-9.29417969 7.47980469 -8.40085937 6.77210938 -7.48046875 6.04296875 C-5.06956062 4.12408813 -5.06956062 4.12408813 -3.30078125 2.30078125 C-2 1 -2 1 0 0 Z " fill="#808494" transform="translate(284,291)"/>
<path d="M0 0 C0.33 0.66 0.66 1.32 1 2 C-1.12369237 2.36192504 -3.2490113 2.71431747 -5.375 3.0625 C-7.15003906 3.35833984 -7.15003906 3.35833984 -8.9609375 3.66015625 C-12 4 -12 4 -14 3 C-15.70363822 2.77377919 -17.41328701 2.59111527 -19.125 2.4375 C-20.03507812 2.35371094 -20.94515625 2.26992188 -21.8828125 2.18359375 C-22.58148438 2.12300781 -23.28015625 2.06242187 -24 2 C-24 1.67 -24 1.34 -24 1 C-15.97875848 0.28586721 -8.05358138 -0.14525497 0 0 Z " fill="#D8D9DE" transform="translate(413,296)"/>
<path d="M0 0 C1.32 0 2.64 0 4 0 C4 3.96 4 7.92 4 12 C2.68 12 1.36 12 0 12 C0 8.04 0 4.08 0 0 Z " fill="#363945" transform="translate(198,274)"/>
<path d="M0 0 C0.97582031 0.00902344 1.95164063 0.01804688 2.95703125 0.02734375 C4.06111328 0.04474609 4.06111328 0.04474609 5.1875 0.0625 C5.1875 0.3925 5.1875 0.7225 5.1875 1.0625 C2.8775 1.3925 0.5675 1.7225 -1.8125 2.0625 C1.8175 3.3825 5.4475 4.7025 9.1875 6.0625 C5.89773192 7.15908936 4.47446233 6.86203138 1.1875 6.0625 C1.1875 5.4025 1.1875 4.7425 1.1875 4.0625 C-5.7425 3.5675 -5.7425 3.5675 -12.8125 3.0625 C-9.26061743 -0.48938257 -4.8063041 -0.05790728 0 0 Z " fill="#CFD2DD" transform="translate(252.8125,246.9375)"/>
<path d="M0 0 C6.43974581 0.62320121 12.67572401 1.64008262 19 3 C19 3.66 19 4.32 19 5 C12.1781317 5.38614349 6.50422293 4.00865708 0 2 C0 1.34 0 0.68 0 0 Z " fill="#A3A4A9" transform="translate(10,283)"/>
<path d="M0 0 C1.20568053 4.67201205 1.09382426 9.21496292 1 14 C0.34 13.67 -0.32 13.34 -1 13 C-1.66 14.32 -2.32 15.64 -3 17 C-3 11.72 -3 6.44 -3 1 C-1 0 -1 0 0 0 Z " fill="#434653" transform="translate(218,272)"/>
<path d="M0 0 C0.8353125 0.556875 0.8353125 0.556875 1.6875 1.125 C0.06410195 2.83384005 -1.60569053 4.49946717 -3.3125 6.125 C-3.9725 6.125 -4.6325 6.125 -5.3125 6.125 C-5.6425 5.465 -5.9725 4.805 -6.3125 4.125 C-8.2925 4.455 -10.2725 4.785 -12.3125 5.125 C-4.39375 -1.6625 -4.39375 -1.6625 0 0 Z " fill="#424550" transform="translate(286.3125,316.875)"/>
<path d="M0 0 C7.38921642 -0.29556866 14.77297327 0.41142696 22 2 C22.33 2.66 22.66 3.32 23 4 C15.86978521 4.23767383 8.94307217 3.75472339 2 2 C1.34 1.34 0.68 0.68 0 0 Z " fill="#ABACB2" transform="translate(30,288)"/>
<path d="M0 0 C0 0.33 0 0.66 0 1 C-6.79024146 3.61239833 -13.26551508 3.01627032 -20.4375 2.625 C-21.64599609 2.56828125 -22.85449219 2.5115625 -24.09960938 2.453125 C-27.06706726 2.31237601 -30.03358537 2.16103485 -33 2 C-33 1.67 -33 1.34 -33 1 C-29.00010952 0.83063527 -25.00007283 0.66499743 -21 0.5 C-19.87464844 0.45230469 -18.74929688 0.40460938 -17.58984375 0.35546875 C-11.72065214 0.11520944 -5.87406622 -0.05758888 0 0 Z " fill="#7C2525" transform="translate(392,255)"/>
<path d="M0 0 C0.33 0.99 0.66 1.98 1 3 C0.67 3.66 0.34 4.32 0 5 C0.99 5.33 1.98 5.66 3 6 C-2.625 10 -2.625 10 -6 10 C-5.72510809 5.96825194 -5.46508424 4.43105369 -2.4375 1.625 C-1.633125 1.08875 -0.82875 0.5525 0 0 Z " fill="#8E92A1" transform="translate(223,235)"/>
<path d="M0 0 C0.33 0.99 0.66 1.98 1 3 C2.32 3.66 3.64 4.32 5 5 C4.67 9.95 4.34 14.9 4 20 C3.67 20 3.34 20 3 20 C3 16.04 3 12.08 3 8 C1.68 8 0.36 8 -1 8 C-0.67 5.36 -0.34 2.72 0 0 Z " fill="#444857" transform="translate(199,266)"/>
<path d="M0 0 C1 2 1 2 0.4765625 3.9609375 C0.05503906 5.15589844 0.05503906 5.15589844 -0.375 6.375 C-2.24089357 12.2027224 -2.69676341 17.91435527 -3 24 C-3.33 24 -3.66 24 -4 24 C-4.08144943 21.29105233 -4.14070614 18.58458737 -4.1875 15.875 C-4.21263672 15.11445313 -4.23777344 14.35390625 -4.26367188 13.5703125 C-4.32790921 8.60262502 -3.68477251 5.34162205 -1 1 C-0.67 0.67 -0.34 0.34 0 0 Z " fill="#6D7283" transform="translate(224,257)"/>
<path d="M0 0 C1.32 0 2.64 0 4 0 C4 0.99 4 1.98 4 3 C1.11584117 4.44207941 -1.41721528 4.09394887 -4.625 4.0625 C-5.81351563 4.05347656 -7.00203125 4.04445313 -8.2265625 4.03515625 C-9.14179688 4.02355469 -10.05703125 4.01195312 -11 4 C-11 3.34 -11 2.68 -11 2 C-7.37 2 -3.74 2 0 2 C0 1.34 0 0.68 0 0 Z " fill="#202227" transform="translate(258,311)"/>
<path d="M0 0 C-0.25068148 3.38419999 -1.30542561 4.3123671 -3.75 6.8125 C-7 9 -7 9 -9.875 8.8125 C-10.57625 8.544375 -11.2775 8.27625 -12 8 C-11.195625 7.4121875 -11.195625 7.4121875 -10.375 6.8125 C-8.47612374 5.36335759 -6.68140509 3.87096714 -4.875 2.3125 C-2 0 -2 0 0 0 Z " fill="#454751" transform="translate(279,300)"/>
<path d="M0 0 C1.76462683 3.08809695 2 4.23312136 2 8 C3.32 8.33 4.64 8.66 6 9 C4.1875 9.625 4.1875 9.625 2 10 C1.01 9.34 0.02 8.68 -1 8 C-1 7.34 -1 6.68 -1 6 C-1.66 6 -2.32 6 -3 6 C-2.625 3.5625 -2.625 3.5625 -2 1 C-1.34 0.67 -0.68 0.34 0 0 Z " fill="#B0B3BC" transform="translate(3,273)"/>
<path d="M0 0 C2.475 0.495 2.475 0.495 5 1 C5.25 7.625 5.25 7.625 3 11 C2.67 10.01 2.34 9.02 2 8 C1.34 7.67 0.68 7.34 0 7 C0 4.69 0 2.38 0 0 Z " fill="#E5E7F0" transform="translate(495,272)"/>
<path d="M0 0 C1.16402344 0.14695313 1.16402344 0.14695313 2.3515625 0.296875 C3.12242187 0.38453125 3.89328125 0.4721875 4.6875 0.5625 C7.0552418 1.06352386 8.87007948 1.87340044 10.9765625 3.046875 C10.9765625 3.706875 10.9765625 4.366875 10.9765625 5.046875 C5.73776172 4.49542229 1.00305553 3.61765407 -4.0234375 2.046875 C-2.0234375 0.046875 -2.0234375 0.046875 0 0 Z " fill="#7E1E1E" transform="translate(268.0234375,185.953125)"/>
<path d="M0 0 C0.89203125 0.10183594 1.7840625 0.20367187 2.703125 0.30859375 C3.37859375 0.39238281 4.0540625 0.47617187 4.75 0.5625 C1.58759418 2.67077055 0.24342531 2.90067465 -3.4375 3.1875 C-4.78908203 3.29964844 -4.78908203 3.29964844 -6.16796875 3.4140625 C-7.19857422 3.48753906 -7.19857422 3.48753906 -8.25 3.5625 C-8.58 2.5725 -8.91 1.5825 -9.25 0.5625 C-5.98086376 -0.46865279 -3.38958652 -0.4013984 0 0 Z " fill="#BEC0C9" transform="translate(270.25,371.4375)"/>
<path d="M0 0 C0.33 0 0.66 0 1 0 C1 1.98 1 3.96 1 6 C1.66 6 2.32 6 3 6 C3 6.66 3 7.32 3 8 C-3.75 12 -3.75 12 -6 12 C-6 11.34 -6 10.68 -6 10 C-6.66 9.67 -7.32 9.34 -8 9 C-6.865625 8.62875 -5.73125 8.2575 -4.5625 7.875 C-2.6185869 7.13362127 -2.6185869 7.13362127 -1 6 C0.05749557 2.91630113 0.05749557 2.91630113 0 0 Z " fill="#CCCDD5" transform="translate(494,273)"/>
<path d="M0 0 C0.66 0 1.32 0 2 0 C2.70133599 1.57725347 3.385583 3.16211333 4.0625 4.75 C4.44535156 5.63171875 4.82820312 6.5134375 5.22265625 7.421875 C6.04600008 10.15256309 5.9773992 11.36901347 5 14 C1.34133706 9.67612562 0 5.65076098 0 0 Z " fill="#979AA3" transform="translate(158,306)"/>
<path d="M0 0 C1.16015625 0.13921875 2.3203125 0.2784375 3.515625 0.421875 C5.27132812 0.61523438 5.27132812 0.61523438 7.0625 0.8125 C7.95453125 0.93109375 8.8465625 1.0496875 9.765625 1.171875 C9.765625 1.501875 9.765625 1.831875 9.765625 2.171875 C-1.75601509 4.46800256 -1.75601509 4.46800256 -7.234375 4.171875 C-4.87308011 1.1559637 -3.90910511 0.20773022 0 0 Z " fill="#ADB0BE" transform="translate(237.234375,250.828125)"/>
<path d="M0 0 C0.66 0 1.32 0 2 0 C3.65 3.3 5.3 6.6 7 10 C6.34 10.66 5.68 11.32 5 12 C4.15885829 10.56705502 3.32734313 9.12845595 2.5 7.6875 C1.80390625 6.48673828 1.80390625 6.48673828 1.09375 5.26171875 C0 3 0 3 0 0 Z " fill="#A6A8B0" transform="translate(163,319)"/>
<path d="M0 0 C1.4540625 0.0309375 1.4540625 0.0309375 2.9375 0.0625 C2.2775 1.7125 1.6175 3.3625 0.9375 5.0625 C-0.238125 5.0315625 -0.238125 5.0315625 -1.4375 5 C-4.04364961 4.87565937 -4.04364961 4.87565937 -6.0625 6.0625 C-3.76028481 0.07674051 -3.76028481 0.07674051 0 0 Z " fill="#6A6D7C" transform="translate(296.0625,303.9375)"/>
<path d="M0 0 C1.65 0 3.3 0 5 0 C5.33 1.98 5.66 3.96 6 6 C4.35 6 2.7 6 1 6 C0.67 4.02 0.34 2.04 0 0 Z " fill="#2F323C" transform="translate(198,286)"/>
<path d="M0 0 C-3.82517513 2.39073445 -7.59665524 2.55966552 -12 3 C-12 2.34 -12 1.68 -12 1 C-8.00439392 -1.83022097 -4.57262677 -0.76210446 0 0 Z " fill="#5A1F1F" transform="translate(482,244)"/>
<path d="M0 0 C2.0625 0.4375 2.0625 0.4375 4 1 C3.34 2.32 2.68 3.64 2 5 C1.4225 4.79375 0.845 4.5875 0.25 4.375 C-2.51967567 3.91338739 -3.64561267 4.57055055 -6 6 C-4 4 -2 2 0 0 Z " fill="#595C69" transform="translate(292,308)"/>
<path d="M0 0 C0.66 0 1.32 0 2 0 C2.33 2.97 2.66 5.94 3 9 C2.34 8.34 1.68 7.68 1 7 C-0.98 7.99 -0.98 7.99 -3 9 C-2.01 6.03 -1.02 3.06 0 0 Z " fill="#A3A7B8" transform="translate(285,282)"/>
<path d="M0 0 C0.66 0.66 1.32 1.32 2 2 C-3.94 2.495 -3.94 2.495 -10 3 C-8.04050742 -0.91898516 -3.88584979 -0.24803297 0 0 Z " fill="#EFF0F7" transform="translate(463,290)"/>
<path d="M0 0 C-2.28176413 2.07384637 -3.44323483 2.98397191 -6.578125 3.07421875 C-7.90070313 2.88279297 -7.90070313 2.88279297 -9.25 2.6875 C-10.14203125 2.56761719 -11.0340625 2.44773438 -11.953125 2.32421875 C-12.62859375 2.21722656 -13.3040625 2.11023438 -14 2 C-14 1.67 -14 1.34 -14 1 C-9.27616037 0.34843591 -4.78025483 -0.11950637 0 0 Z " fill="#752525" transform="translate(432,251)"/>
<path d="M0 0 C0 0.99 0 1.98 0 3 C-6.625 3.25 -6.625 3.25 -10 1 C-6.59437148 0.22157062 -3.49234244 -0.09978121 0 0 Z " fill="#6E2424" transform="translate(452,248)"/>
<path d="M0 0 C0 0.66 0 1.32 0 2 C-3.22791555 4.1519437 -4.28400809 4.20086443 -8 4 C-8 3.34 -8 2.68 -8 2 C-4.91190305 0.23537317 -3.76687864 0 0 0 Z " fill="#292B31" transform="translate(271,308)"/>
<path d="M0 0 C0.33 0 0.66 0 1 0 C3.5059761 6.48605578 3.5059761 6.48605578 2 10 C1.34 10.66 0.68 11.32 0 12 C0 8.04 0 4.08 0 0 Z " fill="#2C2E36" transform="translate(216,280)"/>
<path d="M0 0 C0.99 0.33 1.98 0.66 3 1 C2.34 2.65 1.68 4.3 1 6 C0.01 6 -0.98 6 -2 6 C-1.34 4.02 -0.68 2.04 0 0 Z " fill="#9FA3B0" transform="translate(225,234)"/>
<path d="M0 0 C-2.17424117 2.50037734 -3.73045798 3.43628586 -7 4 C-7 3.01 -7 2.02 -7 1 C-4.53721199 -0.231394 -2.7204945 -0.07159196 0 0 Z " fill="#CCCED6" transform="translate(306,357)"/>
<path d="M0 0 C-0.99 1.485 -0.99 1.485 -2 3 C-4.31 2.67 -6.62 2.34 -9 2 C-5.86501708 0.14223235 -3.62528568 -0.20140476 0 0 Z " fill="#8A2525" transform="translate(235,185)"/>
</svg>
